<svg id="Layer_1" data-name="Layer 1" xmlns="http://www.w3.org/2000/svg" viewBox="0 0 406.23 505.59"><defs><style>.cls-1{fill:none;stroke:#060000;stroke-miterlimit:10;stroke-width:5px;}.cls-2{font-size:157.32px;font-family:AdobeArabic-Regular, Adobe Arabic;}.cls-3{fill:#fff;}</style></defs><title>SaUmy</title><path class="cls-1" d="M496.62,474.27c0,79-59.88,143-133.74,143H229.13c-73.86,0-133.74-64-133.74-143V259.73c0-79,59.88-143,133.74-143H362.87c73.86,0,133.74,64,133.74,143Z" transform="translate(-92.88 -114.21)"/><text class="cls-2" transform="translate(35.62 384.3)">SaUmy</text><path class="cls-3" d="M392.94,386.14H200.78V196.56H392.94ZM287.56,328.79c-.27-1.64-.45-2.87-.67-4.09-2.19-12.2-4.93-24.34-6.41-36.63-1.28-10.59-1-21.36-1.64-32-.45-7.35-2.86-14-8.69-18.9A24.39,24.39,0,0,0,256,231.41c.64,2.41.95,4.1,1.54,5.69,6.34,17,8.26,34.56,7.55,52.58a120.26,120.26,0,0,0,.84,19.63C267.5,321.89,274.21,327.83,287.56,328.79ZM302.21,330c3.45-.91,5.78-1.44,8.06-2.14,12.79-3.92,17.09-9.11,17.56-22.47q.6-17.34.16-34.7c-.37-15.2,1.39-29.68,12.43-42.85-3.78,1.4-6.42,2.34-9,3.34-12.32,4.73-18.49,13.94-19,26.9a191.84,191.84,0,0,0,.25,23.55C314.11,298.39,312.55,314.41,302.21,330Zm-6.66-94.66c-13.46,35.82-12.82,69.2.38,93.52C312.57,308.44,311.24,257.34,295.55,235.32Zm-36.72,38.92c-1.05-10.57-3.47-20.65-10.64-28.8-7.48-8.51-17.36-10.53-28.07-9.2-5.24.65-8.25,5-8.08,10.47.14,4.62,2.79,7.26,8.25,8.21a27.32,27.32,0,0,0,3,.44C237.87,256.28,250,261.79,258.83,274.24Zm75.33-3.38c1.17-1.4,2.13-2.55,3.09-3.72,7.16-8.68,16.41-13.46,27.51-14.9a59.06,59.06,0,0,0,8.82-1.55c5.44-1.57,7.44-5.46,6-10.88-1.27-4.71-4.23-6.88-9.84-7.22C348.34,231.32,332,248.69,334.16,270.85Zm-37.93,110.5c2.67-1.36,6-2.11,7.86-4.19,3.74-4.22,5.29-9.64,3.46-15.19-2.66-8.11-5.77-16.08-8.85-24.05a3.69,3.69,0,0,0-2.68-2,3.57,3.57,0,0,0-2.55,2.07c-2.84,7.91-5.66,15.83-8.1,23.87a18,18,0,0,0-.38,8C286.19,376.77,290.13,380.41,296.23,381.36ZM258.65,291.1c-1.3-17.94-16.64-29.92-37.16-26.26-4.53.81-6.44,3.93-6.49,8.75,0,4.56,2.68,6.59,6.63,7.65q16.09,4.32,32.16,8.68C255.27,290.32,256.77,290.65,258.65,291.1Zm64,38.87c6.63,9.77,12.94,19.57,19.81,29,3.68,5,8.8,5.46,13.61,2.26,4.45-3,5.31-7,2.76-12.81C352.87,334.65,338.53,327.24,322.69,330Zm-52.06,2.35c-15.46-3.72-31.91,6.26-35.31,20.94-1.36,5.86,1.2,10.09,7,11.67,4.91,1.32,8.53-.95,11-4.72C259.22,351.13,264.76,341.84,270.63,332.31Zm41.06,4.24c1.08,11.66,1.74,22.6,3.25,33.41.76,5.43,4.42,7.72,9.27,7.65,5.48-.07,9.47-3,10.69-8a15.57,15.57,0,0,0,.32-5.91,34.09,34.09,0,0,0-7.73-17.34C323.51,341.7,318.58,338.57,311.7,336.54ZM260.85,309c-3-4.13-5.4-7.91-8.26-11.31-6.75-8-15.72-9.79-25.57-8.21-5.34.86-7.82,4.17-7.83,9.58s2.48,9.57,7.49,9.79C237.69,309.29,248.74,309,260.85,309Zm20.73,28.91c-12.92,3.21-22.61,16.39-22.37,29.89.12,6.9,3.48,10.62,9.9,11s9.94-2.89,10.52-10.14c.56-7,.83-13.95,1.26-20.92C281.09,344.44,281.34,341.23,281.58,337.87ZM334.52,308c10.68,0,21.07.39,31.41-.14,6.34-.33,9.43-4.84,9.14-11.21-.25-5.47-3.59-8.67-9.73-9.31C351.6,285.93,339.81,293.69,334.52,308Zm-49.9-69.65c3.48-14.06-3.79-28.4-16.3-33.23-6.23-2.41-10.63-1-13.46,4.25s-1.89,10,3.72,13.6C267,228.32,275.68,233.15,284.61,238.39Zm92.9,32.46c-10.16-12.71-20.7-9.35-29.38-4.47-9.39,5.28-15.65,19-12.93,26.88,8.85-8.52,13.13-11.06,25.86-12.62C368.22,279.77,373.31,276.57,377.52,270.85ZM262.08,320.63c-9.88-8.21-27.6-7.56-36.84.93q-6.34,5.83-1.6,13c3.1,4.69,7.66,6.4,12.54,3.42C245,332.59,253.38,326.51,262.08,320.63Zm69.23.52c10.4,1.64,17.44,7.78,24.75,13.48a15.38,15.38,0,0,0,3.77,2c5,2,9,.63,11.79-3.88,3.11-5,2.26-9.58-2.51-13.63C359.3,310.81,343.68,311.32,331.31,321.15ZM307.4,236.85c6.68-4,12.85-8,19.35-11.4s8.8-8.52,9-15.3c.07-2.67-1.13-4.13-3.61-5.07-8.52-3.23-17.87.85-22.37,9.91C306.28,222,306.62,229.31,307.4,236.85Zm42.81-15.56c7.7,1.43,15.34,3,23,4.2a14.94,14.94,0,0,0,6.69-.8c4.14-1.37,6.5-5.52,6.52-10.54,0-4-1.91-6.67-5.63-8.18C369.15,201.21,353.93,208.65,350.22,221.29Zm-109.53,1.49c-4.62-12.71-18.48-19.39-30.43-15.16-3.94,1.39-6.05,4-6.11,8.29-.1,7.7,4.9,12.38,12.65,11.23S232.48,224.29,240.69,222.77Zm56.46,7.67c2.9-4.32,6-7.83,7.78-11.91a22.65,22.65,0,0,0,2-11.49c-.45-3.35-2.42-7.78-5.09-9.27-6.22-3.47-12.62.14-14.49,7.06C284.49,215.28,290.16,222.55,297.15,230.44Z" transform="translate(-92.88 -114.21)"/><path d="M287.56,328.79c-13.35-1-20.07-6.9-21.64-19.47a120.26,120.26,0,0,1-.84-19.63c.71-18-1.21-35.6-7.55-52.58-.59-1.59-.9-3.28-1.54-5.69a24.39,24.39,0,0,1,14.14,5.72c5.83,4.91,8.25,11.55,8.69,18.9.65,10.68.37,21.45,1.64,32,1.48,12.29,4.22,24.43,6.41,36.63C287.11,325.92,287.29,327.15,287.56,328.79Z" transform="translate(-92.88 -114.21)"/><path d="M302.21,330c10.34-15.56,11.9-31.58,10.44-48.36a191.84,191.84,0,0,1-.25-23.55c.47-13,6.65-22.16,19-26.9,2.62-1,5.26-1.95,9-3.34-11,13.17-12.8,27.65-12.43,42.85q.42,17.34-.16,34.7c-.47,13.36-4.77,18.55-17.56,22.47C308,328.54,305.66,329.07,302.21,330Z" transform="translate(-92.88 -114.21)"/><path d="M295.55,235.32c15.69,22,17,73.13.38,93.52C282.74,304.52,282.1,271.14,295.55,235.32Z" transform="translate(-92.88 -114.21)"/><path d="M258.83,274.24c-8.8-12.45-21-18-35.57-18.88a27.32,27.32,0,0,1-3-.44c-5.46-1-8.11-3.59-8.25-8.21-.17-5.49,2.84-9.81,8.08-10.47,10.71-1.34,20.59.69,28.07,9.2C255.36,253.59,257.78,263.67,258.83,274.24Z" transform="translate(-92.88 -114.21)"/><path d="M334.16,270.85c-2.17-22.17,14.19-39.53,35.57-38.27,5.61.33,8.57,2.5,9.84,7.22,1.46,5.43-.54,9.31-6,10.88a59.06,59.06,0,0,1-8.82,1.55c-11.09,1.44-20.35,6.22-27.51,14.9C336.29,268.3,335.32,269.46,334.16,270.85Z" transform="translate(-92.88 -114.21)"/><path d="M296.23,381.36c-6.1-.95-10-4.59-11.23-11.52a18,18,0,0,1,.38-8c2.44-8,5.26-16,8.1-23.87A3.57,3.57,0,0,1,296,335.9a3.69,3.69,0,0,1,2.68,2c3.08,8,6.18,15.94,8.85,24.05,1.83,5.56.28,11-3.46,15.19C302.24,379.25,298.9,380,296.23,381.36Z" transform="translate(-92.88 -114.21)"/><path d="M258.65,291.1c-1.88-.45-3.38-.78-4.86-1.18q-16.08-4.33-32.16-8.68c-3.95-1.06-6.67-3.09-6.63-7.65,0-4.82,2-7.94,6.49-8.75C242,261.18,257.35,273.16,258.65,291.1Z" transform="translate(-92.88 -114.21)"/><path d="M322.69,330c15.84-2.72,30.18,4.68,36.17,18.41,2.55,5.85,1.69,9.85-2.76,12.81-4.81,3.2-9.92,2.77-13.61-2.26C335.63,349.53,329.32,339.73,322.69,330Z" transform="translate(-92.88 -114.21)"/><path d="M270.63,332.31c-5.88,9.53-11.41,18.82-17.3,27.89-2.45,3.77-6.07,6-11,4.72-5.84-1.58-8.4-5.81-7-11.67C238.73,338.57,255.17,328.59,270.63,332.31Z" transform="translate(-92.88 -114.21)"/><path d="M311.7,336.54c6.88,2,11.81,5.15,15.8,9.77a34.09,34.09,0,0,1,7.73,17.34,15.57,15.57,0,0,1-.32,5.91c-1.22,5.09-5.21,8-10.69,8-4.85.07-8.51-2.22-9.27-7.65C313.43,359.14,312.78,348.21,311.7,336.54Z" transform="translate(-92.88 -114.21)"/><path d="M260.85,309c-12.11,0-23.16.32-34.17-.15-5-.21-7.49-4.27-7.49-9.79s2.49-8.72,7.83-9.58c9.85-1.59,18.81.2,25.57,8.21C255.44,301,257.85,304.83,260.85,309Z" transform="translate(-92.88 -114.21)"/><path d="M281.58,337.87c-.24,3.36-.49,6.57-.69,9.79-.42,7-.7,14-1.26,20.92-.58,7.25-4.07,10.48-10.52,10.14s-9.78-4.05-9.9-11C259,354.26,268.66,341.08,281.58,337.87Z" transform="translate(-92.88 -114.21)"/><path d="M334.52,308c5.29-14.35,17.08-22.11,30.82-20.67,6.14.64,9.48,3.84,9.73,9.31.29,6.37-2.8,10.88-9.14,11.21C355.59,308.43,345.2,308,334.52,308Z" transform="translate(-92.88 -114.21)"/><path d="M284.61,238.39c-8.93-5.24-17.64-10.07-26-15.39-5.61-3.55-6.59-8.26-3.72-13.6s7.23-6.65,13.46-4.25C280.82,210,288.1,224.33,284.61,238.39Z" transform="translate(-92.88 -114.21)"/><path d="M377.52,270.85c-4.21,5.72-9.3,8.92-16.45,9.79-12.73,1.55-17,4.09-25.86,12.62-2.72-7.87,3.55-21.6,12.93-26.88C356.82,261.5,367.36,258.14,377.52,270.85Z" transform="translate(-92.88 -114.21)"/><path d="M262.08,320.63c-8.71,5.88-17.1,12-25.91,17.34-4.88,3-9.43,1.27-12.54-3.42s-2.62-9.1,1.6-13C234.48,313.08,252.2,312.43,262.08,320.63Z" transform="translate(-92.88 -114.21)"/><path d="M331.31,321.15c12.36-9.84,28-10.35,37.8-2,4.77,4,5.63,8.67,2.51,13.63-2.83,4.51-6.83,5.85-11.79,3.88a15.38,15.38,0,0,1-3.77-2C348.75,328.93,341.71,322.79,331.31,321.15Z" transform="translate(-92.88 -114.21)"/><path d="M307.4,236.85c-.78-7.53-1.12-14.89,2.34-21.86,4.5-9.06,13.85-13.14,22.37-9.91,2.48.94,3.67,2.4,3.61,5.07-.17,6.78-2.59,12-9,15.3S314.08,232.87,307.4,236.85Z" transform="translate(-92.88 -114.21)"/><path d="M350.22,221.29c3.71-12.63,18.94-20.07,30.62-15.32,3.72,1.51,5.65,4.15,5.63,8.18,0,5-2.39,9.17-6.52,10.54a14.94,14.94,0,0,1-6.69.8C365.56,224.29,357.91,222.72,350.22,221.29Z" transform="translate(-92.88 -114.21)"/><path d="M240.69,222.77c-8.21,1.52-16,3.18-23.88,4.35s-12.75-3.53-12.65-11.23c.06-4.26,2.17-6.89,6.11-8.29C222.21,203.38,236.07,210.07,240.69,222.77Z" transform="translate(-92.88 -114.21)"/><path d="M297.15,230.44c-7-7.89-12.66-15.17-9.85-25.61,1.87-6.92,8.27-10.52,14.49-7.06,2.67,1.49,4.64,5.93,5.09,9.27a22.65,22.65,0,0,1-2,11.49C303.15,222.61,300.05,226.12,297.15,230.44Z" transform="translate(-92.88 -114.21)"/></svg>