<svg xmlns="http://www.w3.org/2000/svg" data-name="Layer 1" width="199.54" height="196.98" style=""><rect id="backgroundrect" width="100%" height="100%" x="0" y="0" fill="none" stroke="none"/><defs><style>.cls-1{fill:#fafafa;}</style></defs><title>SaUmypatt</title><g class="currentLayer" style=""><title>Layer 1</title><path class="cls-1" d="M200.61526947498322,196.98001098632812 H1.0752694749832017 V0.12001098632811137 H200.61526947498322 zM91.18526947498322,137.4300109863281 c-0.28,-1.7000000000000002 -0.4700000000000001,-3 -0.7000000000000002,-4.25 c-2.27,-12.67 -5.12,-25.28 -6.66,-38 c-1.33,-11 -1,-22.18 -1.71,-33.27 c-0.46,-7.63 -3,-14.52 -9,-19.62 a25.32,25.32 0 0 0 -14.68,-5.94 c0.6700000000000004,2.5 1,4.26 1.6,5.91 c6.58,17.64 8.58,35.89 7.84,54.6 a124.88,124.88 0 0 0 0.8700000000000002,20.39 C70.35526947498323,130.23001098632812 77.3252694749832,136.4300109863281 91.18526947498322,137.4300109863281 zm15.21,1.23 c3.58,-0.9400000000000002 6,-1.49 8.37,-2.22 c13.28,-4.07 17.75,-9.46 18.23,-23.33 q0.6300000000000002,-18 0.17,-36 c-0.3800000000000001,-15.78 1.44,-30.82 12.91,-44.49 c-3.93,1.45 -6.67,2.43 -9.39,3.47 c-12.79,4.91 -19.21,14.47 -19.7,27.93 a199.21,199.21 0 0 0 0.26,24.46 C118.7652694749832,105.87001098632811 117.18526947498322,122.5000109863281 106.40526947498324,138.66001098632813 zm-6.91,-98.29 c-14,37.2 -13.31,71.86 0.4,97.12 C117.18526947498322,116.30001098632812 115.78526947498324,63.230010986328125 99.49526947498322,40.37001098632811 zm-38.13,40.42 c-1.09,-11 -3.6,-21.44 -11,-29.91 c-7.77,-8.84 -18,-10.94 -29.15,-9.55 c-5.45,0.6800000000000004 -8.57,5.17 -8.39,10.870000000000001 c0.15000000000000005,4.79 2.89,7.53 8.56,8.52 a28.37,28.37 0 0 0 3.08,0.46 C39.59526947498321,62.14001098632815 52.185269474983215,67.86001098632812 61.35526947498323,80.79001098632813 zM139.5752694749832,77.23001098632812 c1.21,-1.45 2.22,-2.6500000000000004 3.21,-3.8600000000000003 c7.43,-9 17,-14 28.56,-15.47 a61.33,61.33 0 0 0 9.16,-1.61 c5.65,-1.6300000000000003 7.72,-5.67 6.21,-11.3 c-1.32,-4.8900000000000015 -4.39,-7.15 -10.22,-7.49 C154.30526947498322,36.230010986328125 137.3252694749832,54.230010986328125 139.5752694749832,77.23001098632812 zM100.18526947498322,192.02001098632815 c2.77,-1.4100000000000001 6.24,-2.19 8.16,-4.35 c3.88,-4.38 5.49,-10 3.6,-15.78 c-2.77,-8.42 -6,-16.7 -9.18,-25 a3.83,3.83 0 0 0 -2.7800000000000002,-2.1 a3.71,3.71 0 0 0 -2.6500000000000004,2.15 c-2.95,8.21 -5.87,16.44 -8.41,24.79 a18.71,18.71 0 0 0 -0.3900000000000001,8.31 C89.7652694749832,187.23001098632812 93.85526947498323,191.04001098632813 100.18526947498322,192.02001098632815 zm-39,-93.73 c-1.35,-18.62 -17.28,-31.07 -38.59,-27.27 c-4.7,0.8400000000000002 -6.69,4.08 -6.74,9.09 c0,4.74 2.7800000000000002,6.84 6.88,7.95 q16.7,4.49 33.4,9 C57.655269474983214,97.49001098632812 59.185269474983215,97.8200109863281 61.185269474983215,98.30001098632812 zm66.5,40.36 c6.8900000000000015,10.14 13.43,20.32 20.57,30.07 c3.8200000000000003,5.23 9.14,5.67 14.13,2.35 c4.62,-3.08 5.52,-7.23 2.87,-13.3 C159.0052694749832,143.52001098632815 144.11526947498322,135.83001098632815 127.66526947498323,138.65001098632814 zm-54.06,2.44 c-16.05,-3.8600000000000003 -33.13,6.5 -36.67,21.74 c-1.4100000000000001,6.08 1.25,10.48 7.3100000000000005,12.12 c5.1,1.3800000000000001 8.86,-1 11.4,-4.9 C61.76526947498321,160.64001098632815 67.50526947498321,150.98001098632812 73.61526947498322,141.09001098632814 zm42.64,4.4 c1.12,12.11 1.8,23.47 3.38,34.7 c0.79,5.6400000000000015 4.59,8 9.63,7.95 c5.69,-0.08000000000000003 9.84,-3.07 11.1,-8.36 a16.17,16.17 0 0 0 0.3300000000000001,-6.14 a35.39,35.39 0 0 0 -8,-18 C128.5152694749832,150.84001098632814 123.3952694749832,147.59001098632814 116.25526947498321,145.49001098632812 zm-52.81,-28.64 c-3.11,-4.29 -5.61,-8.22 -8.58,-11.74 c-7,-8.32 -16.33,-10.17 -26.55,-8.52 c-5.55,0.8900000000000002 -8.12,4.33 -8.13,9.95 s2.58,9.94 7.78,10.16 C39.405269474983214,117.23001098632812 50.87526947498321,116.84001098632814 63.445269474983206,116.84001098632814 zm21.53,30 c-13.41,3.33 -23.48,17 -23.23,31 c0.13,7.17 3.6100000000000003,11 10.28,11.38 s10.32,-3 10.93,-10.53 c0.5800000000000002,-7.23 0.8700000000000002,-14.48 1.31,-21.73 C84.46526947498319,153.6900109863281 84.73526947498323,150.35001098632813 84.97526947498324,146.8700109863281 zm55,-31 c11.09,0 21.88,0.4 32.62,-0.15000000000000005 c6.59,-0.3400000000000002 9.79,-5 9.49,-11.64 c-0.26,-5.68 -3.73,-9 -10.1,-9.67 C157.68526947498322,92.93001098632811 145.4452694749832,100.99001098632812 139.9452694749832,115.89001098632815 zm-51.82,-72.32 c3.62,-14.6 -3.94,-29.49 -16.93,-34.51 c-6.47,-2.5 -11,-1.06 -14,4.41 s-2,10.43 3.8600000000000003,14.12 C69.80526947498322,33.11001098632812 78.85526947498323,38.12001098632811 88.12526947498321,43.56001098632811 zM184.60526947498323,77.23001098632812 c-10.55,-13.19 -21.5,-9.71 -30.51,-4.6400000000000015 c-9.75,5.48 -16.26,19.74 -13.43,27.91 c9.19,-8.85 13.64,-11.49 26.85,-13.1 C174.9452694749832,86.53001098632814 180.18526947498322,83.23001098632812 184.60526947498323,77.23001098632812 zm-119.87,51.7 c-10.26,-8.52 -28.66,-7.85 -38.25,1 q-6.58,6.05 -1.6600000000000001,13.49 c3.22,4.87 8,6.6400000000000015 13,3.55 C46.98526947498323,141.3800109863281 55.695269474983206,135.0700109863281 64.73526947498323,128.97001098632813 zm71.89,0.54 c10.8,1.7000000000000002 18.11,8.08 25.71,14 a16,16 0 0 0 3.91,2.07 c5.15,2.05 9.3,0.6600000000000003 12.24,-4 c3.23,-5.14 2.35,-9.95 -2.6100000000000003,-14.15 C165.68526947498322,118.7600109863281 149.4652694749832,119.29001098632813 136.6252694749832,129.5000109863281 zm-24.83,-87.54 c6.94,-4.13 13.34,-8.32 20.09,-11.84 S141.0252694749832,21.230010986328125 141.18526947498322,14.230010986328125 c0.07,-2.77 -1.17,-4.29 -3.75,-5.26 c-8.85,-3.35 -18.56,0.8800000000000002 -23.23,10.29 C110.62526947498321,26.500010986328107 110.97526947498324,34.14001098632815 111.79526947498323,41.96001098632814 zm44.46,-16.16 c8,1.49 15.93,3.12 23.93,4.36 a15.51,15.51 0 0 0 6.95,-0.8300000000000002 c4.3,-1.42 6.75,-5.73 6.78,-10.94 c0,-4.19 -2,-6.93 -5.85,-8.5 C175.91526947498323,4.960010986328143 160.10526947498323,12.680010986328114 156.2552694749832,25.800010986328118 zm-113.73,1.54 c-4.8,-13.2 -19.19,-20.13 -31.6,-15.75 c-4.09,1.45 -6.28,4.18 -6.34,8.61 c-0.1,8 5.09,12.85 13.14,11.66 S33.99526947498322,28.920010986328123 42.51526947498323,27.34001098632814 zm58.63,8 c3,-4.48 6.23,-8.13 8.07,-12.36 a23.52,23.52 0 0 0 2,-11.93 c-0.4700000000000001,-3.47 -2.51,-8.08 -5.29,-9.63 c-6.46,-3.6 -13.11,0.15000000000000005 -15,7.33 C88.00526947498321,19.56001098632811 93.8952694749832,27.11001098632812 101.18526947498322,35.31001098632811 z" id="svg_1" fill="#000000" fill-opacity="1"/><path d="M90.11000061035156,137.4300109863281 c-13.870000000000001,-1 -20.84,-7.17 -22.47,-20.21 a124.88,124.88 0 0 1 -0.8700000000000001,-20.39 c0.7400000000000001,-18.72 -1.25,-37 -7.84,-54.6 c-0.6200000000000001,-1.6500000000000001 -0.93,-3.41 -1.6,-5.91 A25.32,25.32 0 0 1 72.02000061035159,42.230010986328125 c6.06,5.1 8.57,12 9,19.62 c0.6700000000000002,11.09 0.38000000000000006,22.27 1.71,33.27 c1.54,12.76 4.39,25.37 6.66,38 C89.65000061035158,134.46001098632814 89.84000061035158,135.73001098632812 90.11000061035156,137.4300109863281 z" id="svg_2" class="" fill="#ffffff" fill-opacity="0.5"/><path d="M105.33000061035159,138.66001098632813 c10.73,-16.16 12.36,-32.79 10.85,-50.22 a199.21,199.21 0 0 1 -0.26,-24.46 c0.49000000000000005,-13.45 6.91,-23 19.7,-27.93 c2.72,-1 5.46,-2 9.39,-3.47 C133.54000061035157,46.230010986328125 131.71000061035159,61.29001098632813 132.11000061035156,77.08001098632815 q0.44000000000000006,18 -0.17,36 c-0.48000000000000004,13.870000000000001 -4.95,19.26 -18.23,23.33 C111.33000061035159,137.17001098632812 108.90000061035158,137.72001098632813 105.33000061035159,138.66001098632813 z" id="svg_3" class="" fill="#ffffff" fill-opacity="0.5"/><path d="M98.42000061035156,40.37001098632811 c16.29,22.87 17.67,75.94 0.4,97.12 C85.11000061035156,112.23001098632812 84.44000061035155,77.5700109863281 98.42000061035156,40.37001098632811 z" id="svg_4" class="" fill="#ffffff" fill-opacity="1"/><path d="M60.28000061035158,80.79001098632813 c-9.14,-12.93 -21.77,-18.65 -36.94,-19.6 a28.37,28.37 0 0 1 -3.08,-0.46 c-5.67,-1 -8.42,-3.73 -8.56,-8.52 c-0.17,-5.7 2.95,-10.19 8.39,-10.870000000000001 c11.12,-1.3900000000000001 21.38,0.7100000000000001 29.15,9.55 C56.680000610351556,59.35001098632813 59.19000061035155,69.81001098632811 60.28000061035158,80.79001098632813 z" id="svg_5" class="" fill="#ffffff" fill-opacity="1"/><path d="M138.50000061035155,77.23001098632812 c-2.25,-23 14.73,-41.05 36.93,-39.74 c5.83,0.3400000000000001 8.9,2.6 10.22,7.49 c1.52,5.63 -0.56,9.67 -6.21,11.3 a61.33,61.33 0 0 1 -9.16,1.61 c-11.52,1.5 -21.13,6.46 -28.56,15.47 C140.72000061035158,74.62001098632811 139.71000061035159,75.8200109863281 138.50000061035155,77.23001098632812 z" id="svg_6" class="" fill="#ffffff" fill-opacity="1"/><path d="M99.11000061035156,192.02001098632815 c-6.33,-1 -10.43,-4.77 -11.66,-12 a18.71,18.71 0 0 1 0.39000000000000007,-8.31 c2.54,-8.34 5.46,-16.57 8.41,-24.79 a3.71,3.71 0 0 1 2.6500000000000004,-2.15 a3.83,3.83 0 0 1 2.7800000000000002,2.1 c3.2,8.27 6.42,16.55 9.18,25 c1.9,5.77 0.29000000000000004,11.4 -3.6,15.78 C105.36000061035156,189.83001098632815 101.89000061035154,190.61001098632812 99.11000061035156,192.02001098632815 z" id="svg_7" class="" fill="#ffffff" fill-opacity="1"/><path d="M60.11000061035156,98.30001098632812 c-2,-0.47000000000000003 -3.51,-0.81 -5,-1.22 q-16.7,-4.5 -33.4,-9 c-4.1,-1.1 -6.93,-3.21 -6.88,-7.95 c0,-5 2,-8.25 6.74,-9.09 C42.81000061035155,67.23001098632812 58.74000061035156,79.67001098632812 60.11000061035156,98.30001098632812 z" id="svg_8" class="" fill="#ffffff" fill-opacity="1"/><path d="M126.59000061035158,138.65001098632814 c16.45,-2.83 31.34,4.86 37.56,19.12 c2.6500000000000004,6.08 1.7600000000000002,10.22 -2.87,13.3 c-5,3.3200000000000003 -10.3,2.88 -14.13,-2.35 C140.03000061035158,158.97001098632813 133.48000061035157,148.79001098632813 126.59000061035158,138.65001098632814 z" id="svg_9" class="" fill="#ffffff" fill-opacity="1"/><path d="M72.54000061035157,141.09001098632814 c-6.1,9.9 -11.85,19.55 -18,29 c-2.54,3.92 -6.3,6.27 -11.4,4.9 c-6.06,-1.6400000000000001 -8.72,-6 -7.3100000000000005,-12.12 C39.400000610351555,147.59001098632814 56.48000061035157,137.23001098632812 72.54000061035157,141.09001098632814 z" id="svg_10" class="" fill="#ffffff" fill-opacity="1"/><path d="M115.18000061035156,145.49001098632812 c7.14,2.1 12.26,5.35 16.41,10.15 a35.39,35.39 0 0 1 8,18 a16.17,16.17 0 0 1 -0.33000000000000007,6.14 c-1.26,5.29 -5.41,8.28 -11.1,8.36 c-5,0.07 -8.84,-2.3 -9.63,-7.95 C116.98000061035157,168.95001098632815 116.30000061035156,157.60001098632813 115.18000061035156,145.49001098632812 z" id="svg_11" class="" fill="#ffffff" fill-opacity="1"/><path d="M62.37000061035155,116.84001098632814 c-12.57,0 -24,0.3400000000000001 -35.49,-0.15000000000000002 c-5.2,-0.22000000000000003 -7.78,-4.44 -7.78,-10.16 s2.58,-9.05 8.13,-9.95 c10.23,-1.6500000000000001 19.54,0.2 26.55,8.52 C56.76000061035157,108.6300109863281 59.26000061035154,112.55001098632812 62.37000061035155,116.84001098632814 z" id="svg_12" class="" fill="#ffffff" fill-opacity="1"/><path d="M83.90000061035158,146.8700109863281 c-0.25,3.49 -0.51,6.82 -0.7100000000000001,10.16 c-0.44000000000000006,7.24 -0.7300000000000001,14.5 -1.31,21.73 c-0.6000000000000001,7.53 -4.23,10.89 -10.93,10.53 s-10.16,-4.21 -10.28,-11.38 C60.430000610351556,163.8800109863281 70.49000061035156,150.23001098632812 83.90000061035158,146.8700109863281 z" id="svg_13" class="" fill="#ffffff" fill-opacity="1"/><path d="M138.87000061035155,115.89001098632815 c5.49,-14.9 17.74,-23 32,-21.46 c6.37,0.6700000000000002 9.84,4 10.1,9.67 c0.30000000000000004,6.62 -2.9,11.3 -9.49,11.64 C160.75000061035155,116.29001098632813 149.97000061035158,115.89001098632815 138.87000061035155,115.89001098632815 z" id="svg_14" class="" fill="#ffffff" fill-opacity="1"/><path d="M87.05000061035156,43.56001098632811 c-9.27,-5.44 -18.32,-10.45 -27,-16 c-5.82,-3.6900000000000004 -6.84,-8.58 -3.8600000000000003,-14.12 s7.51,-6.91 14,-4.41 C83.11000061035156,14.0700109863281 90.67000061035156,28.960010986328143 87.05000061035156,43.56001098632811 z" id="svg_15" class="" fill="#ffffff" fill-opacity="1"/><path d="M183.53000061035158,77.23001098632812 c-4.37,5.94 -9.66,9.26 -17.08,10.17 c-13.22,1.61 -17.67,4.25 -26.85,13.1 c-2.83,-8.17 3.68,-22.43 13.43,-27.91 C162.03000061035158,67.56001098632811 172.98000061035157,64.0700109863281 183.53000061035158,77.23001098632812 z" id="svg_16" class="" fill="#ffffff" fill-opacity="1"/><path d="M63.660000610351574,128.97001098632813 c-9,6.11 -17.75,12.41 -26.9,18 c-5.06,3.09 -9.79,1.32 -13,-3.55 s-2.72,-9.45 1.6600000000000001,-13.49 C35.00000061035155,121.12001098632811 53.400000610351555,120.4400109863281 63.660000610351574,128.97001098632813 z" id="svg_17" class="" fill="#ffffff" fill-opacity="1"/><path d="M135.55000061035156,129.5000109863281 c12.84,-10.22 29.06,-10.74 39.25,-2.11 c5,4.2 5.84,9 2.6100000000000003,14.15 c-2.94,4.68 -7.09,6.08 -12.24,4 a16,16 0 0 1 -3.91,-2.07 C153.65000061035158,137.58001098632815 146.34000061035158,131.23001098632812 135.55000061035156,129.5000109863281 z" id="svg_18" class="" fill="#ffffff" fill-opacity="1"/><path d="M110.72000061035158,41.96001098632814 c-0.8200000000000001,-7.82 -1.17,-15.46 2.43,-22.7 c4.67,-9.41 14.39,-13.65 23.23,-10.29 c2.5700000000000003,1 3.81,2.49 3.75,5.26 c-0.18000000000000002,7 -2.6900000000000004,12.43 -9.32,15.89 S117.66000061035157,37.83001098632815 110.72000061035158,41.96001098632814 z" id="svg_19" class="" fill="#ffffff" fill-opacity="1"/><path d="M155.18000061035156,25.800010986328118 c3.85,-13.12 19.67,-20.84 31.8,-15.91 c3.8600000000000003,1.57 5.86,4.3100000000000005 5.85,8.5 c0,5.21 -2.48,9.52 -6.78,10.94 a15.51,15.51 0 0 1 -6.95,0.8300000000000001 C171.11000061035156,28.920010986328123 163.17000061035156,27.290010986328127 155.18000061035156,25.800010986328118 z" id="svg_20" class="" fill="#ffffff" fill-opacity="1"/><path d="M41.440000610351575,27.34001098632814 c-8.52,1.57 -16.62,3.3 -24.8,4.52 S3.4000006103515545,28.230010986328125 3.510000610351568,20.230010986328125 c0.06000000000000001,-4.43 2.25,-7.16 6.34,-8.61 C22.260000610351568,7.230010986328125 36.640000610351564,14.150010986328141 41.440000610351575,27.34001098632814 z" id="svg_21" class="" fill="#ffffff" fill-opacity="1"/><path d="M100.11000061035156,35.31001098632811 c-7.26,-8.19 -13.15,-15.75 -10.22,-26.59 c1.94,-7.18 8.59,-10.93 15,-7.33 c2.7800000000000002,1.55 4.82,6.15 5.29,9.63 a23.52,23.52 0 0 1 -2,11.93 C106.30000061035156,27.180010986328114 103.11000061035156,30.8200109863281 100.11000061035156,35.31001098632811 z" id="svg_22" class="" fill="#ffffff" fill-opacity="1"/></g></svg>