<svg id="Layer_1" data-name="Layer 1" xmlns="http://www.w3.org/2000/svg" viewBox="0 0 199.54 196.98"><defs><style>.cls-1{fill:#fff;}</style></defs><title>SaUmypatt</title><path class="cls-1" d="M397.43,483.75H197.89V286.89H397.43ZM288,424.2c-.28-1.7-.47-3-.7-4.25-2.27-12.67-5.12-25.28-6.66-38-1.33-11-1-22.18-1.71-33.27-.46-7.63-3-14.52-9-19.62a25.32,25.32,0,0,0-14.68-5.94c.67,2.5,1,4.26,1.6,5.91,6.58,17.64,8.58,35.89,7.84,54.6a124.88,124.88,0,0,0,.87,20.39C267.17,417,274.14,423.2,288,424.2Zm15.21,1.23c3.58-.94,6-1.49,8.37-2.22,13.28-4.07,17.75-9.46,18.23-23.33q.63-18,.17-36c-.38-15.78,1.44-30.82,12.91-44.49-3.93,1.45-6.67,2.43-9.39,3.47-12.79,4.91-19.21,14.47-19.7,27.93a199.21,199.21,0,0,0,.26,24.46C315.58,392.64,314,409.27,303.22,425.43Zm-6.91-98.29c-14,37.2-13.31,71.86.4,97.12C314,403.07,312.6,350,296.31,327.14Zm-38.13,40.42c-1.09-11-3.6-21.44-11-29.91-7.77-8.84-18-10.94-29.15-9.55-5.45.68-8.57,5.17-8.39,10.87.15,4.79,2.89,7.53,8.56,8.52a28.37,28.37,0,0,0,3.08.46C236.41,348.91,249,354.63,258.17,367.56ZM336.39,364c1.21-1.45,2.22-2.65,3.21-3.86,7.43-9,17-14,28.56-15.47a61.33,61.33,0,0,0,9.16-1.61c5.65-1.63,7.72-5.67,6.21-11.3-1.32-4.89-4.39-7.15-10.22-7.49C351.12,323,334.14,341,336.39,364ZM297,478.79c2.77-1.41,6.24-2.19,8.16-4.35,3.88-4.38,5.49-10,3.6-15.78-2.77-8.42-6-16.7-9.18-25a3.83,3.83,0,0,0-2.78-2.1,3.71,3.71,0,0,0-2.65,2.15c-2.95,8.21-5.87,16.44-8.41,24.79a18.71,18.71,0,0,0-.39,8.31C286.58,474,290.67,477.81,297,478.79Zm-39-93.73c-1.35-18.62-17.28-31.07-38.59-27.27-4.7.84-6.69,4.08-6.74,9.09,0,4.74,2.78,6.84,6.88,7.95q16.7,4.49,33.4,9C254.47,384.26,256,384.59,258,385.07Zm66.5,40.36c6.89,10.14,13.43,20.32,20.57,30.07,3.82,5.23,9.14,5.67,14.13,2.35,4.62-3.08,5.52-7.23,2.87-13.3C355.82,430.29,340.93,422.6,324.48,425.42Zm-54.06,2.44c-16.05-3.86-33.13,6.5-36.67,21.74-1.41,6.08,1.25,10.48,7.31,12.12,5.1,1.38,8.86-1,11.4-4.9C258.58,447.41,264.32,437.75,270.43,427.86Zm42.64,4.4c1.12,12.11,1.8,23.47,3.38,34.7.79,5.64,4.59,8,9.63,7.95,5.69-.08,9.84-3.07,11.1-8.36a16.17,16.17,0,0,0,.33-6.14,35.39,35.39,0,0,0-8-18C325.33,437.61,320.21,434.36,313.07,432.26Zm-52.81-28.64c-3.11-4.29-5.61-8.22-8.58-11.74-7-8.32-16.33-10.17-26.55-8.52-5.55.89-8.12,4.33-8.13,9.95s2.58,9.94,7.78,10.16C236.22,404,247.69,403.61,260.26,403.61Zm21.53,30c-13.41,3.33-23.48,17-23.23,31,.13,7.17,3.61,11,10.28,11.38s10.32-3,10.93-10.53c.58-7.23.87-14.48,1.31-21.73C281.28,440.46,281.55,437.12,281.79,433.64Zm55-31c11.09,0,21.88.4,32.62-.15,6.59-.34,9.79-5,9.49-11.64-.26-5.68-3.73-9-10.1-9.67C354.5,379.7,342.26,387.76,336.76,402.66Zm-51.82-72.32c3.62-14.6-3.94-29.49-16.93-34.51-6.47-2.5-11-1.06-14,4.41s-2,10.43,3.86,14.12C266.62,319.88,275.67,324.89,284.94,330.33ZM381.42,364c-10.55-13.19-21.5-9.71-30.51-4.64-9.75,5.48-16.26,19.74-13.43,27.91,9.19-8.85,13.64-11.49,26.85-13.1C371.76,373.3,377,370,381.42,364Zm-119.87,51.7c-10.26-8.52-28.66-7.85-38.25,1q-6.58,6.05-1.66,13.49c3.22,4.87,8,6.64,13,3.55C243.8,428.15,252.51,421.84,261.55,415.74Zm71.89.54c10.8,1.7,18.11,8.08,25.71,14a16,16,0,0,0,3.91,2.07c5.15,2.05,9.3.66,12.24-4,3.23-5.14,2.35-9.95-2.61-14.15C362.5,405.53,346.28,406.06,333.44,416.27Zm-24.83-87.54c6.94-4.13,13.34-8.32,20.09-11.84S337.84,308,338,301c.07-2.77-1.17-4.29-3.75-5.26-8.85-3.35-18.56.88-23.23,10.29C307.44,313.27,307.79,320.91,308.61,328.73Zm44.46-16.16c8,1.49,15.93,3.12,23.93,4.36a15.51,15.51,0,0,0,6.95-.83c4.3-1.42,6.75-5.73,6.78-10.94,0-4.19-2-6.93-5.85-8.5C372.73,291.73,356.92,299.45,353.07,312.57Zm-113.73,1.54c-4.8-13.2-19.19-20.13-31.6-15.75-4.09,1.45-6.28,4.18-6.34,8.61-.1,8,5.09,12.85,13.14,11.66S230.81,315.69,239.33,314.11Zm58.63,8c3-4.48,6.23-8.13,8.07-12.36a23.52,23.52,0,0,0,2-11.93c-.47-3.47-2.51-8.08-5.29-9.63-6.46-3.6-13.11.15-15,7.33C284.82,306.33,290.71,313.88,298,322.08Z" transform="translate(-197.89 -286.77)"/><path d="M288,424.2c-13.87-1-20.84-7.17-22.47-20.21a124.88,124.88,0,0,1-.87-20.39c.74-18.72-1.25-37-7.84-54.6-.62-1.65-.93-3.41-1.6-5.91A25.32,25.32,0,0,1,269.91,329c6.06,5.1,8.57,12,9,19.62.67,11.09.38,22.27,1.71,33.27,1.54,12.76,4.39,25.37,6.66,38C287.54,421.23,287.73,422.5,288,424.2Z" transform="translate(-197.89 -286.77)"/><path d="M303.22,425.43c10.73-16.16,12.36-32.79,10.85-50.22a199.21,199.21,0,0,1-.26-24.46c.49-13.45,6.91-23,19.7-27.93,2.72-1,5.46-2,9.39-3.47C331.43,333,329.6,348.06,330,363.85q.44,18-.17,36c-.48,13.87-4.95,19.26-18.23,23.33C309.22,423.94,306.79,424.49,303.22,425.43Z" transform="translate(-197.89 -286.77)"/><path d="M296.31,327.14c16.29,22.87,17.67,75.94.4,97.12C283,399,282.33,364.34,296.31,327.14Z" transform="translate(-197.89 -286.77)"/><path d="M258.17,367.56c-9.14-12.93-21.77-18.65-36.94-19.6a28.37,28.37,0,0,1-3.08-.46c-5.67-1-8.42-3.73-8.56-8.52-.17-5.7,2.95-10.19,8.39-10.87,11.12-1.39,21.38.71,29.15,9.55C254.57,346.12,257.08,356.58,258.17,367.56Z" transform="translate(-197.89 -286.77)"/><path d="M336.39,364c-2.25-23,14.73-41.05,36.93-39.74,5.83.34,8.9,2.6,10.22,7.49,1.52,5.63-.56,9.67-6.21,11.3a61.33,61.33,0,0,1-9.16,1.61c-11.52,1.5-21.13,6.46-28.56,15.47C338.61,361.39,337.6,362.59,336.39,364Z" transform="translate(-197.89 -286.77)"/><path d="M297,478.79c-6.33-1-10.43-4.77-11.66-12a18.71,18.71,0,0,1,.39-8.31c2.54-8.34,5.46-16.57,8.41-24.79a3.71,3.71,0,0,1,2.65-2.15,3.83,3.83,0,0,1,2.78,2.1c3.2,8.27,6.42,16.55,9.18,25,1.9,5.77.29,11.4-3.6,15.78C303.25,476.6,299.78,477.38,297,478.79Z" transform="translate(-197.89 -286.77)"/><path d="M258,385.07c-2-.47-3.51-.81-5-1.22q-16.7-4.5-33.4-9c-4.1-1.1-6.93-3.21-6.88-7.95,0-5,2-8.25,6.74-9.09C240.7,354,256.63,366.44,258,385.07Z" transform="translate(-197.89 -286.77)"/><path d="M324.48,425.42c16.45-2.83,31.34,4.86,37.56,19.12,2.65,6.08,1.76,10.22-2.87,13.3-5,3.32-10.3,2.88-14.13-2.35C337.92,445.74,331.37,435.56,324.48,425.42Z" transform="translate(-197.89 -286.77)"/><path d="M270.43,427.86c-6.1,9.9-11.85,19.55-18,29-2.54,3.92-6.3,6.27-11.4,4.9-6.06-1.64-8.72-6-7.31-12.12C237.29,434.36,254.37,424,270.43,427.86Z" transform="translate(-197.89 -286.77)"/><path d="M313.07,432.26c7.14,2.1,12.26,5.35,16.41,10.15a35.39,35.39,0,0,1,8,18,16.17,16.17,0,0,1-.33,6.14c-1.26,5.29-5.41,8.28-11.1,8.36-5,.07-8.84-2.3-9.63-7.95C314.87,455.72,314.19,444.37,313.07,432.26Z" transform="translate(-197.89 -286.77)"/><path d="M260.26,403.61c-12.57,0-24,.34-35.49-.15-5.2-.22-7.78-4.44-7.78-10.16s2.58-9.05,8.13-9.95c10.23-1.65,19.54.2,26.55,8.52C254.65,395.4,257.15,399.32,260.26,403.61Z" transform="translate(-197.89 -286.77)"/><path d="M281.79,433.64c-.25,3.49-.51,6.82-.71,10.16-.44,7.24-.73,14.5-1.31,21.73-.6,7.53-4.23,10.89-10.93,10.53s-10.16-4.21-10.28-11.38C258.32,450.65,268.38,437,281.79,433.64Z" transform="translate(-197.89 -286.77)"/><path d="M336.76,402.66c5.49-14.9,17.74-23,32-21.46,6.37.67,9.84,4,10.1,9.67.3,6.62-2.9,11.3-9.49,11.64C358.64,403.06,347.86,402.66,336.76,402.66Z" transform="translate(-197.89 -286.77)"/><path d="M284.94,330.33c-9.27-5.44-18.32-10.45-27-16-5.82-3.69-6.84-8.58-3.86-14.12s7.51-6.91,14-4.41C281,300.84,288.56,315.73,284.94,330.33Z" transform="translate(-197.89 -286.77)"/><path d="M381.42,364c-4.37,5.94-9.66,9.26-17.08,10.17-13.22,1.61-17.67,4.25-26.85,13.1-2.83-8.17,3.68-22.43,13.43-27.91C359.92,354.33,370.87,350.84,381.42,364Z" transform="translate(-197.89 -286.77)"/><path d="M261.55,415.74c-9,6.11-17.75,12.41-26.9,18-5.06,3.09-9.79,1.32-13-3.55s-2.72-9.45,1.66-13.49C232.89,407.89,251.29,407.21,261.55,415.74Z" transform="translate(-197.89 -286.77)"/><path d="M333.44,416.27c12.84-10.22,29.06-10.74,39.25-2.11,5,4.2,5.84,9,2.61,14.15-2.94,4.68-7.09,6.08-12.24,4a16,16,0,0,1-3.91-2.07C351.54,424.35,344.23,418,333.44,416.27Z" transform="translate(-197.89 -286.77)"/><path d="M308.61,328.73c-.82-7.82-1.17-15.46,2.43-22.7,4.67-9.41,14.39-13.65,23.23-10.29,2.57,1,3.81,2.49,3.75,5.26-.18,7-2.69,12.43-9.32,15.89S315.55,324.6,308.61,328.73Z" transform="translate(-197.89 -286.77)"/><path d="M353.07,312.57c3.85-13.12,19.67-20.84,31.8-15.91,3.86,1.57,5.86,4.31,5.85,8.5,0,5.21-2.48,9.52-6.78,10.94a15.51,15.51,0,0,1-6.95.83C369,315.69,361.06,314.06,353.07,312.57Z" transform="translate(-197.89 -286.77)"/><path d="M239.33,314.11c-8.52,1.57-16.62,3.3-24.8,4.52S201.29,315,201.4,307c.06-4.43,2.25-7.16,6.34-8.61C220.15,294,234.53,300.92,239.33,314.11Z" transform="translate(-197.89 -286.77)"/><path d="M298,322.08c-7.26-8.19-13.15-15.75-10.22-26.59,1.94-7.18,8.59-10.93,15-7.33,2.78,1.55,4.82,6.15,5.29,9.63a23.52,23.52,0,0,1-2,11.93C304.19,313.95,301,317.59,298,322.08Z" transform="translate(-197.89 -286.77)"/></svg>